<?xml version="1.0" encoding="UTF-8" standalone="no"?>
<!-- Created with Inkscape (http://www.inkscape.org/) -->

<svg
   xmlns:dc="http://purl.org/dc/elements/1.1/"
   xmlns:cc="http://creativecommons.org/ns#"
   xmlns:rdf="http://www.w3.org/1999/02/22-rdf-syntax-ns#"
   xmlns:svg="http://www.w3.org/2000/svg"
   xmlns="http://www.w3.org/2000/svg"
   xmlns:sodipodi="http://sodipodi.sourceforge.net/DTD/sodipodi-0.dtd"
   xmlns:inkscape="http://www.inkscape.org/namespaces/inkscape"
   width="210mm"
   height="297mm"
   viewBox="0 0 210 297"
   version="1.1"
   id="svg8"
   inkscape:version="0.92.1 15371"
   sodipodi:docname="comet and stars.svg">
  <defs
     id="defs2">
    <inkscape:perspective
       sodipodi:type="inkscape:persp3d"
       inkscape:vp_x="0 : 148.5 : 1"
       inkscape:vp_y="0 : 1000 : 0"
       inkscape:vp_z="210 : 148.5 : 1"
       inkscape:persp3d-origin="105 : 99 : 1"
       id="perspective4604" />
  </defs>
  <sodipodi:namedview
     id="base"
     pagecolor="#ffffff"
     bordercolor="#666666"
     borderopacity="1.0"
     inkscape:pageopacity="0.0"
     inkscape:pageshadow="2"
     inkscape:zoom="0.044194174"
     inkscape:cx="1797.9092"
     inkscape:cy="-42.271664"
     inkscape:document-units="mm"
     inkscape:current-layer="layer1"
     showgrid="false"
     inkscape:window-width="1309"
     inkscape:window-height="747"
     inkscape:window-x="57"
     inkscape:window-y="21"
     inkscape:window-maximized="1" />
  <metadata
     id="metadata5">
    <rdf:RDF>
      <cc:Work
         rdf:about="">
        <dc:format>image/svg+xml</dc:format>
        <dc:type
           rdf:resource="http://purl.org/dc/dcmitype/StillImage" />
        <dc:title></dc:title>
      </cc:Work>
    </rdf:RDF>
  </metadata>
  <g
     inkscape:label="Layer 1"
     inkscape:groupmode="layer"
     id="layer1">
    <rect
       style="opacity:0.91500005;fill:#000000;fill-opacity:1;stroke:none;stroke-width:25;stroke-linecap:round;stroke-linejoin:round;stroke-miterlimit:4;stroke-dasharray:none;stroke-opacity:1"
       id="rect4689"
       width="3390.8999"
       height="1951.5667"
       x="-1303.8666"
       y="-795.19995" />
    <g
       id="g4687"
       transform="matrix(0.81025369,0.54863856,-0.54863856,0.81025369,174.65596,-134.71984)">
      <path
         id="rect4547"
         transform="scale(0.26458333)"
         d="m -714.41211,231.33789 c -41.87716,0 -75.58984,33.71268 -75.58984,75.58984 0,41.87717 33.71268,75.5918 75.58984,75.5918 h 318.65039 c 41.87715,0 75.58984,-33.71463 75.58984,-75.5918 0,-41.87716 -33.71269,-75.58984 -75.58984,-75.58984 z m 585.48438,0 c -41.87717,0 -75.58985,33.71268 -75.58985,75.58984 0,41.87717 33.71268,75.5918 75.58985,75.5918 H 3.046875 c 41.877167,0 75.589844,-33.71463 75.589844,-75.5918 0,-41.87716 -33.712677,-75.58984 -75.589844,-75.58984 z m 342.51757,0 c -41.87716,0 -75.58984,33.71463 -75.58984,75.5918 0,41.87716 33.71268,75.58984 75.58984,75.58984 H 238 749.75 c 41.87717,0 75.5918,33.71268 75.5918,75.58985 0,41.87713 -33.71463,75.59179 -75.5918,75.59179 H 213.58984 c -41.87716,0 -75.58984,33.71268 -75.58984,75.58985 0,41.87716 33.71268,75.59179 75.58984,75.59179 h 326.85743 c 41.87716,0 75.58984,33.71268 75.58984,75.58985 0,41.87716 -33.71268,75.58984 -75.58984,75.58984 H 213.58984 C 171.71268,836.0625 138,869.77713 138,911.6543 c 0,41.87716 33.71268,75.58984 75.58984,75.58984 H 749.75 c 41.87717,0 75.5918,33.71266 75.5918,75.58986 0,41.8771 -33.71463,75.5918 -75.5918,75.5918 h -971.73828 c -41.87716,0 -75.58984,33.7127 -75.58984,75.5898 0,41.8772 33.71268,75.5899 75.58984,75.5899 h 637.98437 c 41.87717,0 75.58985,33.7146 75.58985,75.5918 0,41.8771 -33.71268,75.5898 -75.58985,75.5898 H 213.58984 c -41.87716,0 -75.58984,33.7146 -75.58984,75.5918 0,41.8772 33.71268,75.5898 75.58984,75.5899 h 1477.81056 243.2441 546.6621 c 2.7452,0 5.4854,-0.019 8.2227,-0.051 1.0398,-0.012 2.0766,-0.034 3.1152,-0.051 1.6775,-0.027 3.3549,-0.057 5.0293,-0.096 1.1964,-0.028 2.3911,-0.064 3.586,-0.098 1.5715,-0.045 3.1421,-0.091 4.7109,-0.1465 1.1714,-0.041 2.3419,-0.087 3.5117,-0.1347 1.6847,-0.068 3.3675,-0.1426 5.0488,-0.2227 1.0233,-0.049 2.0464,-0.097 3.0684,-0.1504 1.7513,-0.091 3.5003,-0.1925 5.2481,-0.2968 1.0177,-0.061 2.0362,-0.1185 3.0527,-0.1836 2.1496,-0.1379 4.2955,-0.2879 6.4394,-0.4453 0.5439,-0.04 1.0894,-0.074 1.6329,-0.1153 2.7295,-0.2071 5.4535,-0.4329 8.1738,-0.6719 0.6519,-0.057 1.3017,-0.1206 1.9531,-0.1796 2.0226,-0.1835 4.0433,-0.3733 6.0606,-0.5743 1.0173,-0.1013 2.0328,-0.2086 3.0488,-0.3144 1.6487,-0.1717 3.2963,-0.3459 4.9414,-0.5293 1.1953,-0.1332 2.3886,-0.2728 3.582,-0.4121 1.437,-0.1678 2.8725,-0.339 4.3067,-0.5157 1.2353,-0.152 2.4699,-0.3061 3.7031,-0.4648 1.5534,-0.2 3.1042,-0.4068 4.6543,-0.6172 1.0751,-0.1459 2.1511,-0.2905 3.2246,-0.4414 1.8238,-0.2563 3.6438,-0.5242 5.4629,-0.7949 0.8297,-0.1235 1.6615,-0.2408 2.4902,-0.3672 2.5859,-0.3945 5.1681,-0.8032 7.7442,-1.2266 0.8576,-0.1409 1.7118,-0.2914 2.5683,-0.4355 1.7746,-0.2986 3.5486,-0.5979 5.3184,-0.9102 1.143,-0.2016 2.2828,-0.4138 3.4238,-0.6211 1.4589,-0.265 2.9175,-0.5303 4.3731,-0.8046 1.191,-0.2245 2.3795,-0.455 3.5683,-0.6856 1.4259,-0.2766 2.8508,-0.5563 4.2735,-0.8418 1.2309,-0.247 2.4608,-0.4964 3.6894,-0.75 1.3366,-0.2759 2.6703,-0.5581 4.0039,-0.8418 1.2729,-0.2707 2.5462,-0.5406 3.8164,-0.8183 1.3386,-0.2928 2.6743,-0.594 4.0098,-0.8946 1.2224,-0.2751 2.4462,-0.5465 3.666,-0.8281 1.6864,-0.3894 3.3674,-0.7915 5.0488,-1.1934 1.6274,-0.3888 3.2523,-0.7831 4.875,-1.1836 1.6834,-0.4154 3.3666,-0.8298 5.0449,-1.2578 1.257,-0.3204 2.5096,-0.653 3.7637,-0.9804 1.237,-0.323 2.4748,-0.6449 3.709,-0.9746 1.3187,-0.3523 2.6338,-0.7124 3.9492,-1.0723 1.2302,-0.3366 2.4601,-0.6743 3.6875,-1.0176 1.275,-0.3566 2.5484,-0.7163 3.8203,-1.0801 1.2694,-0.3631 2.5365,-0.7313 3.8028,-1.1015 1.2374,-0.3618 2.4745,-0.7252 3.709,-1.0938 1.2482,-0.3727 2.4931,-0.7512 3.7382,-1.1308 1.2984,-0.3959 2.5976,-0.79 3.8926,-1.1934 0.9151,-0.2851 1.8268,-0.5784 2.7402,-0.8672 3.8105,-1.2046 7.61,-2.4337 11.3907,-3.7031 0.027,-0.01 0.055,-0.018 0.082,-0.027 1.4052,-0.4719 2.8041,-0.9566 4.2051,-1.4375 1.0289,-0.3531 2.0593,-0.7026 3.0859,-1.0605 1.4823,-0.5168 2.96,-1.0436 4.4375,-1.5703 0.8976,-0.32 1.7956,-0.6393 2.6914,-0.9629 1.5007,-0.5421 2.9985,-1.0903 4.4942,-1.6426 0.9509,-0.3512 1.9006,-0.7052 2.8496,-1.0605 1.3951,-0.5224 2.7889,-1.047 4.1797,-1.5782 0.9618,-0.3674 1.9211,-0.7396 2.8808,-1.1113 1.5314,-0.5929 3.062,-1.1873 4.5879,-1.791 0.5178,-0.2049 1.0336,-0.413 1.5508,-0.6191 5.5675,-2.2185 11.0967,-4.5093 16.5898,-6.8692 0.7621,-0.3274 1.5266,-0.6504 2.2871,-0.9804 1.5248,-0.6617 3.0437,-1.3354 4.5625,-2.0079 0.7666,-0.3394 1.5339,-0.6773 2.2989,-1.0195 1.5307,-0.6846 3.0574,-1.3768 4.582,-2.0723 0.7634,-0.3482 1.5272,-0.6958 2.2891,-1.0468 1.5913,-0.7331 3.179,-1.4718 4.7636,-2.2168 0.59,-0.2774 1.1786,-0.5569 1.7676,-0.836 1.6772,-0.7944 3.3519,-1.5926 5.0215,-2.4004 0.4703,-0.2275 0.9385,-0.4588 1.4082,-0.6875 7.798,-3.7949 15.5108,-7.7339 23.1367,-11.8144 0.4921,-0.2633 0.9852,-0.5246 1.4766,-0.7891 1.6309,-0.8778 3.2561,-1.7655 4.8789,-2.6562 0.5522,-0.3032 1.1049,-0.6055 1.6562,-0.9102 1.6548,-0.9143 3.3051,-1.836 4.9512,-2.7637 0.4483,-0.2525 0.8961,-0.5061 1.3438,-0.7597 1.7158,-0.9721 3.4283,-1.949 5.1347,-2.9356 0.3097,-0.179 0.6184,-0.3595 0.9278,-0.539 7.9569,-4.6169 15.8122,-9.3883 23.5586,-14.3145 0.031,-0.02 0.062,-0.041 0.094,-0.061 1.7576,-1.1182 3.5074,-2.2471 5.2539,-3.3809 0.3032,-0.1968 0.6073,-0.3925 0.9102,-0.5898 1.6727,-1.0898 3.3395,-2.187 5.0019,-3.291 0.3967,-0.2635 0.7934,-0.5268 1.1895,-0.7911 1.7608,-1.1747 3.5165,-2.3562 5.2656,-3.5468 0.083,-0.056 0.1652,-0.1135 0.2481,-0.17 9.5307,-6.4942 18.8862,-13.2251 28.0585,-20.1835 0.1633,-0.1239 0.3271,-0.2471 0.4903,-0.3711 1.6979,-1.2906 3.3889,-2.5904 5.0742,-3.8965 0.2208,-0.1711 0.4415,-0.3423 0.6621,-0.5137 1.6894,-1.3126 3.3723,-2.6327 5.0488,-3.9609 0.178,-0.141 0.3554,-0.2827 0.5332,-0.4239 65.7469,-52.1949 121.5397,-116.3304 164.1621,-189.1953 0.01,-0.01 0.012,-0.021 0.018,-0.031 1.6204,-2.7704 3.2207,-5.5542 4.8028,-8.3496 0.1084,-0.1916 0.2179,-0.3826 0.3261,-0.5743 1.5885,-2.8131 3.1596,-5.6384 4.709,-8.4765 0,-0.01 0.01,-0.016 0.012,-0.024 4.7384,-8.6802 9.2923,-17.476 13.6582,-26.3828 0.1346,-0.2745 0.2682,-0.5495 0.4024,-0.8242 1.2686,-2.5969 2.5214,-5.2028 3.7578,-7.8183 0.2028,-0.429 0.4055,-0.8577 0.6074,-1.2872 1.3442,-2.8591 2.6731,-5.7264 3.9785,-8.6074 0.014,-0.031 0.027,-0.061 0.041,-0.092 2.6636,-5.8804 5.2442,-11.808 7.7442,-17.7773 0.2792,-0.6666 0.5529,-1.3362 0.8301,-2.0039 0.9443,-2.2754 1.8784,-4.5558 2.7988,-6.8438 0.3059,-0.7605 0.6108,-1.5213 0.9141,-2.2832 0.9194,-2.3099 1.8258,-4.6267 2.7207,-6.9492 0.2589,-0.672 0.5204,-1.3425 0.7773,-2.0156 28.8521,-75.6034 44.6504,-157.75711 44.6504,-243.7383 0,-82.64993 -14.5942,-161.76528 -41.3516,-234.92383 0,-0.005 0,-0.009 -0.01,-0.0137 -1.0769,-2.94403 -2.1769,-5.87622 -3.293,-8.80078 -0.2569,-0.67309 -0.5184,-1.34358 -0.7773,-2.01563 -0.8949,-2.3225 -1.8013,-4.63925 -2.7207,-6.94922 -0.3033,-0.76186 -0.6082,-1.52271 -0.9141,-2.2832 -0.9313,-2.31506 -1.8762,-4.62357 -2.832,-6.92578 -0.2584,-0.62211 -0.5134,-1.24603 -0.7735,-1.86719 -2.5202,-6.01939 -5.122,-11.99483 -7.8086,-17.92383 -0.045,-0.10008 -0.093,-0.19877 -0.1386,-0.29883 -1.2614,-2.78019 -2.5424,-5.54876 -3.8399,-8.30859 -0.2035,-0.43281 -0.4089,-0.86458 -0.6133,-1.29687 -1.2161,-2.5726 -2.446,-5.13685 -3.6933,-7.69141 -0.1679,-0.34378 -0.3355,-0.68781 -0.5039,-1.03125 -4.3566,-8.88425 -8.8999,-17.65955 -13.627,-26.31836 -0.019,-0.034 -0.038,-0.0675 -0.057,-0.10156 -1.5116,-2.76758 -3.0431,-5.52178 -4.5918,-8.26563 -0.1508,-0.26709 -0.302,-0.53391 -0.4531,-0.80078 -1.5664,-2.76639 -3.1501,-5.52181 -4.754,-8.26367 -0.02,-0.034 -0.041,-0.0675 -0.061,-0.10156 -41.4934,-70.9062 -95.4586,-133.54614 -158.9336,-184.95313 -0.01,-0.008 -0.021,-0.0169 -0.031,-0.0254 -1.705,-1.38065 -3.4181,-2.75085 -5.1368,-4.11523 -0.1778,-0.14117 -0.3552,-0.28284 -0.5332,-0.42383 -1.6765,-1.3282 -3.3594,-2.64831 -5.0488,-3.96094 -0.2206,-0.17138 -0.4413,-0.34255 -0.6621,-0.51367 -1.6685,-1.29313 -3.3425,-2.57957 -5.0234,-3.85742 -0.2302,-0.17495 -0.4611,-0.34878 -0.6914,-0.52344 -7.3004,-5.53518 -14.7139,-10.92774 -22.2422,-16.16992 -0.032,-0.0222 -0.064,-0.0442 -0.096,-0.0664 -0.01,-0.005 -0.014,-0.0106 -0.021,-0.0156 -1.7881,-1.24453 -3.5861,-2.47737 -5.3867,-3.70508 -0.2016,-0.13745 -0.4018,-0.27683 -0.6036,-0.41406 -1.685,-1.14627 -3.3763,-2.28457 -5.0722,-3.41602 -0.4047,-0.26996 -0.8096,-0.53948 -1.2149,-0.80859 -1.5919,-1.05714 -3.1876,-2.10832 -4.789,-3.15235 -0.4763,-0.31051 -0.9545,-0.61838 -1.4317,-0.92773 -1.6346,-1.05983 -3.2716,-2.11599 -4.916,-3.16211 -0.033,-0.0207 -0.065,-0.0418 -0.098,-0.0625 -0.1291,-0.0821 -0.2596,-0.16214 -0.3887,-0.24414 -5.8432,-3.71036 -11.7456,-7.33606 -17.709,-10.8711 -1.7468,-1.03548 -3.5009,-2.05983 -5.2578,-3.08007 -0.3946,-0.22916 -0.7885,-0.45912 -1.1836,-0.6875 -1.6891,-0.97628 -3.3838,-1.94413 -5.082,-2.90625 -0.4477,-0.25364 -0.8955,-0.50712 -1.3438,-0.75977 -1.6461,-0.92765 -3.2964,-1.84938 -4.9512,-2.76367 -0.5513,-0.30463 -1.104,-0.60701 -1.6562,-0.91016 -1.6228,-0.89076 -3.248,-1.77837 -4.8789,-2.65625 -0.4914,-0.2645 -0.9845,-0.52573 -1.4766,-0.78906 -1.7132,-0.91674 -3.4283,-1.82996 -5.1504,-2.73242 -4.1981,-2.20008 -8.4201,-4.35823 -12.6699,-6.47266 -1.6719,-0.83184 -3.3515,-1.65224 -5.0312,-2.4707 -0.5791,-0.28215 -1.1564,-0.5671 -1.7364,-0.84766 -1.6551,-0.80062 -3.3158,-1.59132 -4.9785,-2.3789 -0.589,-0.27902 -1.1776,-0.55857 -1.7676,-0.83594 -1.5846,-0.745 -3.1723,-1.48368 -4.7636,-2.2168 -0.7619,-0.35102 -1.5257,-0.69858 -2.2891,-1.04687 -1.5246,-0.69551 -3.0513,-1.3877 -4.582,-2.07227 -0.765,-0.34216 -1.5323,-0.68011 -2.2989,-1.01953 -1.5188,-0.67248 -3.0377,-1.34613 -4.5625,-2.00781 -0.7605,-0.3301 -1.525,-0.65307 -2.2871,-0.98047 -5.4931,-2.35987 -11.0223,-4.65064 -16.5898,-6.86914 -0.5172,-0.2061 -1.033,-0.41428 -1.5508,-0.61914 -1.5259,-0.60366 -3.0565,-1.19807 -4.5879,-1.79102 -0.9597,-0.37165 -1.919,-0.7439 -2.8808,-1.11133 -1.3908,-0.53119 -2.7846,-1.05578 -4.1797,-1.57812 -0.949,-0.35531 -1.8987,-0.70935 -2.8496,-1.06055 -1.4957,-0.55232 -2.9935,-1.10046 -4.4942,-1.64258 -0.8958,-0.32365 -1.7938,-0.64288 -2.6914,-0.96289 -1.4775,-0.5267 -2.9552,-1.05352 -4.4375,-1.57031 -1.0266,-0.35795 -2.057,-0.70737 -3.0859,-1.06055 -1.401,-0.48087 -2.7999,-0.9655 -4.2051,-1.4375 -0.027,-0.009 -0.055,-0.0182 -0.082,-0.0273 -0.5475,-0.18384 -1.0984,-0.36048 -1.6465,-0.54297 -3.2369,-1.07757 -6.4855,-2.12994 -9.7442,-3.16016 -0.9134,-0.28879 -1.8251,-0.58211 -2.7402,-0.86718 -1.295,-0.40338 -2.5942,-0.79749 -3.8926,-1.19336 -1.2451,-0.37967 -2.49,-0.75813 -3.7382,-1.13086 -1.2345,-0.36859 -2.4716,-0.73197 -3.709,-1.09375 -1.2663,-0.37024 -2.5334,-0.73847 -3.8028,-1.10156 -1.2719,-0.36381 -2.5453,-0.72348 -3.8203,-1.08008 -1.2741,-0.3564 -2.5509,-0.70746 -3.8281,-1.05664 -1.2044,-0.32926 -2.4081,-0.6596 -3.6152,-0.98242 -1.435,-0.3838 -2.8738,-0.75815 -4.3125,-1.13282 -1.1137,-0.28999 -2.2259,-0.58462 -3.3418,-0.86914 -1.6824,-0.42897 -3.3693,-0.84525 -5.0567,-1.26172 -1.6227,-0.40046 -3.2476,-0.79474 -4.875,-1.18359 -1.6814,-0.40182 -3.3624,-0.80398 -5.0488,-1.19336 -1.2198,-0.28163 -2.4436,-0.55303 -3.666,-0.82812 -1.3355,-0.30059 -2.6712,-0.60177 -4.0098,-0.89454 -1.2702,-0.27778 -2.5435,-0.54764 -3.8164,-0.81836 -1.3336,-0.28366 -2.6673,-0.5659 -4.0039,-0.84179 -1.2286,-0.25357 -2.4585,-0.50303 -3.6894,-0.75 -1.4227,-0.28544 -2.8476,-0.56519 -4.2735,-0.8418 -1.1888,-0.23058 -2.3773,-0.46112 -3.5683,-0.68555 -1.4556,-0.2743 -2.9142,-0.53961 -4.3731,-0.80468 -1.141,-0.2073 -2.2808,-0.41946 -3.4238,-0.6211 -1.7698,-0.31223 -3.5438,-0.61154 -5.3184,-0.91015 -0.8565,-0.14412 -1.7107,-0.29462 -2.5683,-0.43555 -0.031,-0.005 -0.061,-0.0106 -0.092,-0.0156 -2.5455,-0.41798 -5.0973,-0.82111 -7.6524,-1.21094 -0.8287,-0.12643 -1.6605,-0.24373 -2.4902,-0.36719 -1.8191,-0.27068 -3.6391,-0.53857 -5.4629,-0.79492 -1.0735,-0.15087 -2.1495,-0.29552 -3.2246,-0.44141 -1.5501,-0.21035 -3.1009,-0.41721 -4.6543,-0.61719 -1.2332,-0.15873 -2.4678,-0.31267 -3.7031,-0.46484 -1.4342,-0.17669 -2.8697,-0.34781 -4.3067,-0.51562 -1.1934,-0.13936 -2.3867,-0.2789 -3.582,-0.41211 -1.6451,-0.18337 -3.2927,-0.3576 -4.9414,-0.5293 -1.016,-0.1058 -2.0315,-0.2131 -3.0488,-0.31445 -2.0173,-0.20101 -4.038,-0.39074 -6.0606,-0.57422 -0.6514,-0.0591 -1.3012,-0.12243 -1.9531,-0.17969 -2.7203,-0.23897 -5.4443,-0.46476 -8.1738,-0.67188 -0.5435,-0.0412 -1.089,-0.0753 -1.6329,-0.11523 -2.1439,-0.15758 -4.2898,-0.30748 -6.4394,-0.44531 -1.0165,-0.0652 -2.035,-0.12286 -3.0527,-0.1836 -1.7478,-0.10431 -3.4968,-0.20566 -5.2481,-0.29687 -1.022,-0.0532 -2.0451,-0.10164 -3.0684,-0.15039 -1.6813,-0.0801 -3.3641,-0.15466 -5.0488,-0.22266 -1.1698,-0.0472 -2.3403,-0.0934 -3.5117,-0.13476 -1.5688,-0.0554 -3.1394,-0.10165 -4.7109,-0.14649 -1.1949,-0.0341 -2.3896,-0.0697 -3.586,-0.0977 -1.6744,-0.0392 -3.3518,-0.0686 -5.0293,-0.0957 -1.0386,-0.0168 -2.0754,-0.0386 -3.1152,-0.0508 -2.7373,-0.0321 -5.4775,-0.0508 -8.2227,-0.0508 H 1934.6445 1691.4004 238 Z M -502.2793,836.0625 c -41.87716,0 -75.59179,33.71268 -75.59179,75.58984 0,41.87717 33.71463,75.5918 75.59179,75.5918 h 131.97266 c 41.87717,0 75.58984,-33.71463 75.58984,-75.5918 0,-41.87716 -33.71267,-75.58984 -75.58984,-75.58984 z m 373.35157,0 c -41.87717,0 -75.58985,33.71268 -75.58985,75.58984 0,41.87717 33.71268,75.5918 75.58985,75.5918 H 3.046875 c 41.877167,0 75.589844,-33.71463 75.589844,-75.5918 0,-41.87716 -33.712677,-75.58984 -75.589844,-75.58984 z"
         style="opacity:0.96100003;fill:#2727ff;fill-opacity:1;stroke:none;stroke-width:92.41377258;stroke-linecap:round;stroke-linejoin:round;stroke-miterlimit:4;stroke-dasharray:none;stroke-opacity:1"
         inkscape:connector-curvature="0" />
      <g
         style="fill:#4bffff;fill-opacity:1"
         id="g4678">
        <path
           style="opacity:0.96100003;fill:#4bffff;fill-opacity:1;stroke:none;stroke-width:523.70721436;stroke-linecap:round;stroke-linejoin:round;stroke-miterlimit:4;stroke-dasharray:none;stroke-opacity:1"
           d="m 2314.3887,382.83789 a 529.13386,529.13386 0 0 0 -85.0098,7.61328 L 999.89258,386.72656 c -41.87698,-0.12684 -75.58985,33.71268 -75.58985,75.58985 0,41.87716 33.71287,75.46285 75.58985,75.58984 l 938.12692,2.8418 a 529.13386,529.13386 0 0 0 -0.4883,0.45312 h 140.8731 c 41.8771,0 75.5898,31.97857 75.5898,71.70117 0,39.72261 -33.7127,71.70118 -75.5898,71.70118 h -241.0859 a 529.13386,529.13386 0 0 0 -0.1172,0.27929 h -283.0469 c -31.0011,0 -55.959,33.71268 -55.959,75.58985 0,41.87716 24.9579,75.59179 55.959,75.59179 h 237.2324 55.793 c 41.8771,0 75.5918,33.71268 75.5918,75.58985 0,41.87716 -33.7147,75.58984 -75.5918,75.58984 h -56.0059 -791.28122 c -41.87717,0 -75.58985,33.71266 -75.58985,75.58986 0,41.8771 33.71268,75.5918 75.58985,75.5918 h 836.85942 151.8496 c 41.8772,0 75.5898,33.7127 75.5898,75.5898 0,41.8772 -33.7126,75.5899 -75.5898,75.5899 h -44.1485 -387.3593 c -41.8772,0 -75.5918,33.7126 -75.5918,75.5898 0,41.8772 33.7146,75.5918 75.5918,75.5918 h 745.0449 c 0.8204,0 1.6313,-0.035 2.4453,-0.061 a 529.13386,529.13386 0 0 0 9.8047,0.3789 529.13386,529.13386 0 0 0 529.1328,-529.1348 529.13386,529.13386 0 0 0 -529.1328,-529.13281 z"
           transform="scale(0.26458333)"
           id="path4588"
           inkscape:connector-curvature="0" />
        <path
           id="path4594"
           d="m 237.5849,181.20857 h 25.84928 c 8.20237,0 14.80573,8.92 14.80573,20 0,11.08 -6.60336,20.00001 -14.80573,20.00001 H 237.5849 c -8.20238,0 -14.80573,-8.92001 -14.80573,-20.00001 0,-11.08 6.60335,-20 14.80573,-20 z"
           style="opacity:0.96100003;fill:#4bffff;fill-opacity:1;stroke:none;stroke-width:119.22048187;stroke-linecap:round;stroke-linejoin:round;stroke-miterlimit:4;stroke-dasharray:none;stroke-opacity:1"
           inkscape:connector-curvature="0"
           sodipodi:nodetypes="sssssss" />
        <path
           sodipodi:nodetypes="sssssss"
           inkscape:connector-curvature="0"
           style="opacity:0.96100003;fill:#4bffff;fill-opacity:1;stroke:none;stroke-width:138.56419373;stroke-linecap:round;stroke-linejoin:round;stroke-miterlimit:4;stroke-dasharray:none;stroke-opacity:1"
           d="m 314.62122,181.20857 h 34.91796 c 11.08,0 20,8.92 20,20 0,11.08 -8.92,20.00001 -20,20.00001 h -34.91796 c -11.08,0 -20,-8.92001 -20,-20.00001 0,-11.08 8.92,-20 20,-20 z"
           id="path4596" />
        <path
           id="path4602"
           d="m 314.62122,341.20812 h 34.91796 c 11.08,0 20,8.92 20,20 0,11.08 -8.92,20.00001 -20,20.00001 h -34.91796 c -11.08,0 -20,-8.92001 -20,-20.00001 0,-11.08 8.92,-20 20,-20 z"
           style="opacity:0.96100003;fill:#4bffff;fill-opacity:1;stroke:none;stroke-width:138.56419373;stroke-linecap:round;stroke-linejoin:round;stroke-miterlimit:4;stroke-dasharray:none;stroke-opacity:1"
           inkscape:connector-curvature="0"
           sodipodi:nodetypes="sssssss" />
        <path
           sodipodi:nodetypes="sssssss"
           inkscape:connector-curvature="0"
           style="opacity:0.96100003;fill:#4bffff;fill-opacity:1;stroke:none;stroke-width:138.56419373;stroke-linecap:round;stroke-linejoin:round;stroke-miterlimit:4;stroke-dasharray:none;stroke-opacity:1"
           d="m 171.68548,341.20812 h 84.30937 c 11.08,0 20,8.92 20,20 0,11.08 -8.92,20.00001 -20,20.00001 h -84.30937 c -11.08,0 -20,-8.92001 -20,-20.00001 0,-11.08 8.92,-20 20,-20 z"
           id="path4606" />
      </g>
    </g>
    <path
       inkscape:transform-center-y="1.4401739e-06"
       inkscape:transform-center-x="-1.0128594e-05"
       d="m 1603.7479,-314.65432 -42.2479,-82.36683 -91.759,-12.22627 82.3668,-42.24796 12.2263,-91.75893 42.248,82.36683 91.7589,12.22627 -82.3668,42.24796 z"
       inkscape:randomized="0"
       inkscape:rounded="0"
       inkscape:flatsided="false"
       sodipodi:arg2="2.1854593"
       sodipodi:arg1="1.4000611"
       sodipodi:r2="39.087425"
       sodipodi:r1="115.98643"
       sodipodi:cy="-428.95432"
       sodipodi:cx="1584.041"
       sodipodi:sides="4"
       id="path4695"
       style="opacity:0.91500005;fill:#ffffff;fill-opacity:1;stroke:none;stroke-width:11.63793087;stroke-linecap:round;stroke-linejoin:round;stroke-miterlimit:4;stroke-dasharray:none;stroke-opacity:1"
       sodipodi:type="star" />
    <path
       inkscape:transform-center-y="-3.0013989e-06"
       inkscape:transform-center-x="2.9142485e-05"
       d="m -687.55933,290.01622 -20.1192,-39.2245 -43.69718,-5.82236 39.22449,-20.11921 5.82236,-43.69718 20.11921,39.2245 43.69718,5.82236 -39.2245,20.11921 z"
       inkscape:randomized="0"
       inkscape:rounded="0"
       inkscape:flatsided="false"
       sodipodi:arg2="2.1854593"
       sodipodi:arg1="1.4000611"
       sodipodi:r2="18.614103"
       sodipodi:r1="55.23473"
       sodipodi:cy="235.5846"
       sodipodi:cx="-696.94409"
       sodipodi:sides="4"
       id="path4697"
       style="opacity:0.91500005;fill:#ffffff;fill-opacity:1;stroke:none;stroke-width:5.54218292;stroke-linecap:round;stroke-linejoin:round;stroke-miterlimit:4;stroke-dasharray:none;stroke-opacity:1"
       sodipodi:type="star" />
    <path
       inkscape:transform-center-x="-6.9085719e-05"
       d="m 1247.015,-39.259828 -9.0549,-17.653334 -19.6663,-2.620405 17.6534,-9.054827 2.6204,-19.666305 9.0548,17.653335 19.6663,2.620405 -17.6533,9.054826 z"
       inkscape:randomized="0"
       inkscape:rounded="0"
       inkscape:flatsided="false"
       sodipodi:arg2="2.1854593"
       sodipodi:arg1="1.4000611"
       sodipodi:r2="8.3774424"
       sodipodi:r1="24.858881"
       sodipodi:cy="-63.757263"
       sodipodi:cx="1242.7913"
       sodipodi:sides="4"
       id="path4699"
       style="opacity:0.91500005;fill:#ffffff;fill-opacity:1;stroke:none;stroke-width:2.49430871;stroke-linecap:round;stroke-linejoin:round;stroke-miterlimit:4;stroke-dasharray:none;stroke-opacity:1"
       sodipodi:type="star" />
    <path
       inkscape:transform-center-y="-3.0013989e-06"
       inkscape:transform-center-x="2.9142485e-05"
       d="m 815.13684,948.56834 -20.11921,-39.2245 -43.69718,-5.82236 39.2245,-20.1192 5.82236,-43.69718 20.11921,39.22449 43.69718,5.82237 -39.2245,20.1192 z"
       inkscape:randomized="0"
       inkscape:rounded="0"
       inkscape:flatsided="false"
       sodipodi:arg2="2.1854593"
       sodipodi:arg1="1.4000611"
       sodipodi:r2="18.614103"
       sodipodi:r1="55.23473"
       sodipodi:cy="894.13672"
       sodipodi:cx="805.75208"
       sodipodi:sides="4"
       id="path4701"
       style="opacity:0.91500005;fill:#ffffff;fill-opacity:1;stroke:none;stroke-width:5.54218292;stroke-linecap:round;stroke-linejoin:round;stroke-miterlimit:4;stroke-dasharray:none;stroke-opacity:1"
       sodipodi:type="star" />
    <path
       sodipodi:type="star"
       style="opacity:0.91500005;fill:#ffffff;fill-opacity:1;stroke:none;stroke-width:8.59005737;stroke-linecap:round;stroke-linejoin:round;stroke-miterlimit:4;stroke-dasharray:none;stroke-opacity:1"
       id="path4691"
       sodipodi:sides="4"
       sodipodi:cx="-870.56238"
       sodipodi:cy="-482.83588"
       sodipodi:r1="85.61058"
       sodipodi:r2="28.850763"
       sodipodi:arg1="1.4000611"
       sodipodi:arg2="2.1854593"
       inkscape:flatsided="false"
       inkscape:rounded="0"
       inkscape:randomized="0"
       d="m -856.01655,-398.47006 -31.18358,-60.79567 -67.72806,-9.02432 60.79567,-31.18358 9.02431,-67.72806 31.18358,60.79567 67.72806,9.02431 -60.79566,31.18358 z"
       inkscape:transform-center-x="2.8066729e-05"
       inkscape:transform-center-y="1.2450415e-05" />
  </g>
</svg>
